<svg width="40" height="40" viewBox="0 0 40 40" fill="none" xmlns="http://www.w3.org/2000/svg">
<rect x="0.5" y="0.5" width="39" height="39" rx="19.5" stroke="white"/>
<path fill-rule="evenodd" clip-rule="evenodd" d="M25.25 13H14.75C13.7849 13 13 13.7849 13 14.75V25.25C13 26.2151 13.7849 27 14.75 27H20V22.1875H18.25V20H20V18.25C20 17.5538 20.2766 16.8861 20.7688 16.3938C21.2611 15.9016 21.9288 15.625 22.625 15.625H24.375V17.8125H23.5C23.017 17.8125 22.625 17.767 22.625 18.25V20H24.8125L23.9375 22.1875H22.625V27H25.25C26.2151 27 27 26.2151 27 25.25V14.75C27 13.7849 26.2151 13 25.25 13Z" fill="white"/>
</svg>
