<svg width="69" height="81" viewBox="0 0 69 81" fill="none" xmlns="http://www.w3.org/2000/svg">
<path d="M68.9987 31.6317V49.9346C68.9987 66.5378 55.7557 80.3198 39.1705 80.5031C35.1452 80.5573 31.15 79.8032 27.4215 78.2852C23.693 76.7673 20.307 74.5164 17.4643 71.666C9.62631 63.3753 0.771306 43.1317 0.771306 43.1317C0.3818 42.4575 0.133255 41.7113 0.0407399 40.9383C-0.0517754 40.1652 0.0136659 39.3814 0.233096 38.6344C0.452526 37.8874 0.821374 37.1928 1.31728 36.5926C1.81318 35.9924 2.42581 35.4991 3.11802 35.1428C5.87084 33.7053 9.26334 34.8409 10.8087 37.5218L18.3555 50.6174C18.5654 50.9945 18.8821 51.3011 19.2658 51.4987C19.6494 51.6963 20.0829 51.776 20.5118 51.7279H20.5549C21.2455 51.609 21.871 51.2477 22.319 50.7088C22.7669 50.1699 23.008 49.4889 22.9987 48.7882V5.75666C22.9977 4.9777 23.1551 4.20668 23.4612 3.49039C23.7674 2.77409 24.2158 2.12747 24.7794 1.58975C25.343 1.05203 26.01 0.634433 26.7399 0.362301C27.4697 0.0901682 28.2473 -0.0308251 29.0254 0.00666292C32.1196 0.150413 34.4987 2.81698 34.4987 5.91119V31.6317C34.4978 32.0258 34.578 32.4159 34.7342 32.7777C34.8905 33.1396 35.1194 33.4654 35.4069 33.735C35.6944 34.0046 36.0342 34.2123 36.4053 34.345C36.7764 34.4777 37.1709 34.5328 37.5641 34.5067C38.3034 34.4432 38.9912 34.1021 39.4893 33.552C39.9873 33.002 40.2586 32.2838 40.2487 31.5418V25.8817C40.2477 25.1027 40.4051 24.3317 40.7112 23.6154C41.0174 22.8991 41.4658 22.2525 42.0294 21.7147C42.593 21.177 43.26 20.7594 43.9899 20.4873C44.7197 20.2152 45.4973 20.0942 46.2754 20.1317C49.3696 20.2754 51.7487 22.942 51.7487 26.0362V34.5067C51.7478 34.9008 51.828 35.2909 51.9842 35.6527C52.1405 36.0146 52.3694 36.3404 52.6569 36.61C52.9444 36.8796 53.2842 37.0873 53.6553 37.22C54.0264 37.3527 54.4209 37.4078 54.8141 37.3817C55.5534 37.3182 56.2413 36.9771 56.7393 36.427C57.2373 35.877 57.5086 35.1588 57.4987 34.4168V31.8006C57.4987 28.7064 59.8777 26.0506 62.9719 25.896C63.7488 25.8586 64.5252 25.9792 65.2541 26.2504C65.983 26.5217 66.6493 26.938 67.2127 27.4742C67.7761 28.0103 68.2248 28.6552 68.5318 29.3699C68.8388 30.0845 68.9976 30.8539 68.9987 31.6317Z" fill="#0C0E0F"/>
</svg>
