<svg width="40" height="40" viewBox="0 0 40 40" fill="none" xmlns="http://www.w3.org/2000/svg">
<rect x="0.5" y="0.5" width="39" height="39" rx="19.5" stroke="white"/>
<path d="M28.55 15.8214C28.325 15.0714 27.7625 14.5357 26.975 14.3214C25.625 14 19.8875 14 19.8875 14C19.8875 14 14.2625 14 12.8 14.3214C12.0125 14.5357 11.45 15.0714 11.225 15.8214C11 17.2143 11 20 11 20C11 20 11 22.7857 11.3375 24.1786C11.5625 24.9286 12.125 25.4643 12.9125 25.6786C14.2625 26 20 26 20 26C20 26 25.625 26 27.0875 25.6786C27.875 25.4643 28.4375 24.9286 28.6625 24.1786C29 22.7857 29 20 29 20C29 20 29 17.2143 28.55 15.8214ZM18.2 22.5714V17.4286L22.925 20L18.2 22.5714Z" fill="white"/>
</svg>
