<svg width="75" height="64" viewBox="0 0 75 64" fill="none" xmlns="http://www.w3.org/2000/svg">
<path d="M69 0H5.75C4.22501 0 2.76247 0.605802 1.68414 1.68414C0.605802 2.76247 0 4.22501 0 5.75V57.5C0 59.025 0.605802 60.4875 1.68414 61.5659C2.76247 62.6442 4.22501 63.25 5.75 63.25H69C70.525 63.25 71.9875 62.6442 73.0659 61.5659C74.1442 60.4875 74.75 59.025 74.75 57.5V5.75C74.75 4.22501 74.1442 2.76247 73.0659 1.68414C71.9875 0.605802 70.525 0 69 0ZM15.8125 20.125C14.9596 20.125 14.1258 19.8721 13.4166 19.3982C12.7074 18.9244 12.1547 18.2508 11.8283 17.4628C11.5019 16.6748 11.4165 15.8077 11.5829 14.9712C11.7493 14.1346 12.16 13.3662 12.7631 12.7631C13.3662 12.16 14.1346 11.7493 14.9712 11.5829C15.8077 11.4165 16.6748 11.5019 17.4628 11.8283C18.2508 12.1547 18.9244 12.7074 19.3982 13.4166C19.8721 14.1258 20.125 14.9596 20.125 15.8125C20.125 16.9562 19.6706 18.0531 18.8619 18.8619C18.0531 19.6706 16.9562 20.125 15.8125 20.125ZM30.1875 20.125C29.3346 20.125 28.5008 19.8721 27.7916 19.3982C27.0824 18.9244 26.5297 18.2508 26.2033 17.4628C25.8769 16.6748 25.7915 15.8077 25.9579 14.9712C26.1243 14.1346 26.535 13.3662 27.1381 12.7631C27.7412 12.16 28.5096 11.7493 29.3462 11.5829C30.1827 11.4165 31.0498 11.5019 31.8378 11.8283C32.6258 12.1547 33.2994 12.7074 33.7732 13.4166C34.2471 14.1258 34.5 14.9596 34.5 15.8125C34.5 16.9562 34.0456 18.0531 33.2369 18.8619C32.4281 19.6706 31.3312 20.125 30.1875 20.125Z" fill="#0C0E0F"/>
</svg>
