<svg width="81" height="81" viewBox="0 0 81 81" fill="none" xmlns="http://www.w3.org/2000/svg">
<path d="M80.2841 7.29401C80.2841 7.29401 80.2841 7.32995 80.2841 7.34792L59.3685 76.3264C59.0519 77.4467 58.4002 78.4434 57.5009 79.1828C56.6016 79.9222 55.4976 80.3688 54.3372 80.4628C54.1719 80.4771 54.0066 80.4843 53.8413 80.4843C52.7538 80.4877 51.688 80.1799 50.7698 79.5973C49.8515 79.0146 49.1192 78.1814 48.6591 77.196L35.5778 50.3507C35.4469 50.0817 35.4032 49.7785 35.4529 49.4835C35.5025 49.1884 35.6429 48.9162 35.8545 48.7048L56.6695 27.8898C57.186 27.3462 57.4696 26.6225 57.46 25.8728C57.4504 25.1231 57.1483 24.4068 56.6182 23.8766C56.088 23.3465 55.3717 23.0444 54.622 23.0348C53.8723 23.0252 53.1486 23.3089 52.605 23.8253L31.7792 44.6403C31.5678 44.8519 31.2956 44.9924 31.0005 45.042C30.7055 45.0916 30.4023 45.0479 30.1333 44.917L3.26283 31.8393C2.21209 31.3352 1.33933 30.5237 0.760203 29.5124C0.181079 28.5011 -0.0770677 27.3376 0.0199721 26.1763C0.117012 25.0149 0.564657 23.9105 1.30359 23.0093C2.04252 22.1081 3.03784 21.4527 4.15767 21.1299L73.1361 0.214323H73.19C74.1721 -0.0616003 75.21 -0.0712732 76.197 0.186296C77.1841 0.443865 78.0849 0.959402 78.807 1.68001C79.5291 2.40063 80.0464 3.30037 80.306 4.28693C80.5656 5.27349 80.558 6.31134 80.2841 7.29401Z" fill="#0C0E0F"/>
</svg>
