<svg width="789" height="105" viewBox="0 0 789 105" fill="none" xmlns="http://www.w3.org/2000/svg">
<path d="M102.948 37.6213C102.804 38.1784 101.968 38.954 101.419 38.9782C98.1097 39.126 94.7913 39.0829 91.1788 39.1059C91.7972 34.4484 92.3883 29.9957 92.9957 25.4206L105.856 25.339C104.877 29.5539 103.985 33.6037 102.948 37.6213ZM98.146 57.6574C97.9752 58.2904 96.6036 63.3395 93.7822 65.2519C91.8898 65.9765 89.7861 66.6111 87.363 65.8601C87.9489 61.2766 89.6281 50.5261 90.2411 46.3611C90.3024 45.9487 91.0299 45.3244 91.4691 45.3092C94.6053 45.1985 97.7461 45.2208 101.171 45.1993C100.148 49.5113 99.2409 53.6076 98.146 57.6574ZM84.593 39.0522L72.1946 39.1312L72.0896 25.3749L86.4397 25.2842C85.8111 29.9667 85.2121 34.4393 84.593 39.0522ZM82.6469 56.045C82.1008 60.6723 82.3389 64.7655 77.4278 63.5088L72.4176 61.6179L72.3118 45.5118L83.7358 45.4393C83.3492 48.9731 83.0502 52.7198 82.6469 56.045ZM65.4452 39.0912L52.8215 39.1717C52.1522 34.6518 51.4798 30.1118 50.7829 25.4048L65.3393 25.3122L65.4452 39.0912ZM65.5669 60.4519L55.4789 57.6853C54.7797 53.1231 54.4732 50.347 53.7536 45.6479L65.4191 45.5731L65.5669 60.4519ZM36.6123 50.8433C35.7105 49.6553 35.5181 48.1764 35.2501 45.7768L47.184 45.7008C47.867 50.2374 48.5216 51.654 49.8376 56.2189C44.1498 54.5967 39.3702 53.871 36.6123 50.8433ZM33.3899 39.3531C32.061 34.8411 30.7208 30.2909 29.2781 25.3904C34.0713 25.3605 38.4575 25.2948 42.8417 25.3552C43.3527 25.3624 44.2261 26.005 44.301 26.4487C45.0157 30.6613 45.594 34.8955 46.2331 39.2715L33.3899 39.3531ZM104.096 19.0472C79.3459 19.1874 54.5945 19.1496 29.8431 19.2415C28.0517 19.2471 27.2156 18.8348 26.7821 17.1106C25.8274 13.3156 24.6505 9.56854 23.4947 5.82039C22.413 2.30958 19.7446 0.207021 15.9197 0.0940136C11.8549 -0.0257974 7.76617 -0.0783373 3.72094 0.231206C2.42532 0.330608 1.23704 1.67878 0 2.45585L0.0139841 4.33917C1.0938 5.79127 2.49751 6.39676 4.44057 6.30303C7.67584 6.14769 10.9281 6.31437 14.1642 6.1715C16.1688 6.08344 17.0612 6.70857 17.61 8.62139C21.2005 21.1422 24.9543 33.6214 28.6363 46.1192C29.9369 50.5326 31.0874 52.8638 31.5968 54.3956C35.7967 55.703 42.8107 57.976 50.4045 60.2497C57.4953 62.3735 65.8125 65.3665 71.0744 66.6836C78.2997 68.8478 82.8136 70.5652 93.2137 73.1349C98.2038 73.1009 103.629 63.1233 104.695 58.6128C105.704 54.3427 106.647 50.0586 107.689 45.7953C109.247 39.4234 110.865 33.0647 112.458 26.7004L112.436 23.8748C110.976 20.2298 108.157 19.0245 104.096 19.0472Z" fill="#FDB831"/>
<path d="M49.6211 100.703V100.734C60.7975 100.734 71.9751 100.823 83.1492 100.702C90.2287 100.626 95.1179 97.2743 96.1032 92.2264C97.1271 86.9774 94.0052 82.4586 87.4228 80.3692C69.0773 74.5454 50.6937 68.8069 32.2821 63.1403C25.4529 61.0381 20.9148 62.5726 17.28 67.9671C13.6808 73.3095 10.1322 78.679 6.6894 84.097C1.01935 93.0204 6.27328 100.58 18.2555 100.684C28.7093 100.775 39.1657 100.703 49.6211 100.703ZM15.6155 104.677C0.919198 101.925 -3.8895 92.7222 3.48776 81.4604C6.92902 76.2072 10.2849 70.9102 13.8395 65.7137C18.2695 59.239 24.9022 56.9479 33.1669 59.4647C52.1235 65.2368 71.009 71.1838 89.859 77.2099C96.9589 79.4803 100.984 85.1367 100.542 91.3756C100.088 97.7641 95.4868 102.105 86.7046 104.429C63.0081 104.512 39.3116 104.594 15.6155 104.677Z" fill="white"/>
<path d="M23.701 84.9474C24.2876 86.9721 25.5882 88.9699 25.2061 90.6753C24.4638 93.9899 26.2039 93.968 28.9421 93.9468C40.495 93.8591 52.0509 93.8032 63.6023 93.9551C68.1937 94.0156 72.5726 94.5387 71.5589 88.4242C71.3889 87.3958 72.4558 86.2086 73.0171 84.9474H23.701Z" fill="white"/>
<path d="M26.6155 66.4976C22.2702 66.6922 20.064 68.7672 19.663 72.1854C19.2998 75.2834 22.9236 78.4178 26.445 78.3914C30.0976 78.3638 33.306 75.4006 33.0547 72.123C32.7772 68.526 30.4358 66.7077 26.6155 66.4976Z" fill="white"/>
<path d="M15.7108 84.82C11.9668 84.8351 9.18694 87.2143 9.0898 90.4855C8.99343 93.756 12.2351 96.8854 15.8393 96.6254C19.733 96.3446 22.1821 94.2998 22.5332 90.828C22.8643 87.5564 19.5629 84.8034 15.7108 84.82Z" fill="white"/>
<path d="M87.2572 90.6745C87.0524 87.2794 85.1305 85.1168 81.0123 84.8427C77.2214 84.5899 73.9087 87.2658 73.804 90.5306C73.7008 93.7122 77.0824 96.8692 80.699 96.6069C84.5851 96.3253 86.9791 94.4201 87.2572 90.6745Z" fill="white"/>
<path d="M66.8274 96.2316C66.2215 94.9231 64.6383 95.1824 63.5328 95.4217C61.7908 95.7996 58.8919 93.9779 58.4848 96.622C58.2392 98.2189 60.4755 99.4918 62.5259 99.3902C64.4493 99.2942 66.0552 98.3296 66.8274 96.2316Z" fill="white"/>
<path d="M48.2295 95.2107C47.0888 96.1121 44.4295 94.1777 44.109 96.3684C43.8641 98.0419 45.8922 99.3247 47.9675 99.4011C50.2727 99.4853 52.4013 98.2876 52.3287 96.3449C52.2565 94.4162 49.7897 95.7856 48.2295 95.2107Z" fill="white"/>
<path d="M33.8306 95.2582C32.5406 95.9204 29.8496 94.1138 29.915 96.7096C29.9611 98.5154 31.9654 99.4792 34.0207 99.3995C36.0333 99.3205 38.0927 98.3034 37.9616 96.5157C37.7881 94.1546 35.1939 95.9083 33.8306 95.2582Z" fill="white"/>
<path d="M23.701 84.9474H73.0171C72.4566 86.2082 71.3885 87.3961 71.5589 88.4246C72.5734 94.5391 68.1936 94.0164 63.6019 93.9559C52.0509 93.8036 40.495 93.8587 28.9421 93.9472C26.2035 93.9676 24.4645 93.9903 25.2061 90.6749C25.5882 88.9696 24.2873 86.9717 23.701 84.9474Z" fill="white"/>
<path d="M26.6155 66.4976C30.4362 66.7073 32.7772 68.5257 33.0546 72.1226C33.3063 75.4002 30.0975 78.3641 26.4454 78.3914C22.9236 78.4171 19.2998 75.2831 19.6634 72.185C20.064 68.7675 22.2705 66.6922 26.6155 66.4976Z" fill="white"/>
<path d="M15.7104 84.8196C19.5625 84.8038 22.8646 87.556 22.5332 90.8276C22.1817 94.3002 19.7329 96.3442 15.8392 96.625C12.2347 96.8854 8.99301 93.756 9.09014 90.4852C9.1869 87.2144 11.9667 84.8355 15.7104 84.8196Z" fill="white"/>
<path d="M87.2572 90.6745C86.979 94.4204 84.5847 96.3249 80.699 96.6069C77.0823 96.8684 73.7012 93.7125 73.8036 90.5306C73.9087 87.265 77.221 84.5899 81.0123 84.8427C85.1305 85.1168 87.052 87.2798 87.2572 90.6745Z" fill="white"/>
<path d="M66.8277 96.2312C66.0544 98.3292 64.4497 99.2945 62.5266 99.3901C60.4762 99.4922 58.2395 98.2192 58.4852 96.6224C58.8915 93.9775 61.7911 95.7992 63.5331 95.4216C64.6386 95.182 66.2211 94.9227 66.8277 96.2312Z" fill="white"/>
<path d="M48.2294 95.2102C49.79 95.7851 52.2562 94.4157 52.3287 96.3456C52.4009 98.2879 50.2723 99.4849 47.9679 99.4006C45.8918 99.325 43.8649 98.0415 44.1098 96.3683C44.4299 94.178 47.0884 96.1124 48.2294 95.2102Z" fill="white"/>
<path d="M33.8306 95.2582C35.1939 95.9083 37.7881 94.1546 37.9616 96.5157C38.0927 98.3034 36.0333 99.3205 34.0207 99.3995C31.9654 99.4792 29.9611 98.5154 29.915 96.7096C29.8496 94.1138 32.5406 95.9204 33.8306 95.2582Z" fill="white"/>
<path d="M114.731 50.1572C110.47 48.1926 111.227 51.6003 111.279 53.0943C111.249 56.0926 110.11 57.8622 108.963 62.3322C106.939 65.9061 106.502 68.9226 101.926 73.2781L99.1941 75.1565C98.5387 75.6071 97.9922 76.5727 98.572 76.97C99.3952 77.5331 100.058 77.9984 100.796 78.577C103.364 81.3595 104.682 84.9799 105.242 88.7666C106.246 95.5478 104.19 98.4358 101.989 101.14C100.34 102.218 99.7553 103.026 100.11 103.719C100.357 104.203 100.646 104.431 101.902 104.351C107.06 104.225 121.402 104.557 134.558 104.49L143.605 104.534C146.296 104.523 147.183 104.589 147.586 104.258C149.138 102.982 147.484 102.382 145.983 102.096L137.362 99.595C133.513 99.2888 134.255 99.129 130.887 98.2011C127.541 96.9281 126.274 96.4969 124.124 95.3581C120.721 93.923 118.034 91.1292 116.103 87.0428C115.267 85.2739 115.094 77.4182 115.288 72.6329C115.402 69.8293 116.512 64.6109 116.513 62.6145C116.518 54.4859 116.581 52.6052 114.731 50.1572Z" fill="#FDB831"/>
<path d="M163.051 77.3385V31.8384H168.779V49.8077H195.61V31.8384H201.297V77.3385H195.61V55.0418H168.779V77.3385H163.051ZM214.197 77.3385V42.1419H247.209V47.2936H219.72V56.0722H237.771V61.1415H219.72V72.2692H248.734V77.3385H214.197ZM262.582 63.7379H276.347L269.506 50.261L262.582 63.7379ZM249.847 77.3385L267.734 42.1419H271.196L289.247 77.3385H283.354L278.779 68.3951H260.192L255.658 77.3385H249.847ZM306.392 77.3385H303.549L285.868 42.1419H291.72L304.95 68.4775L317.973 42.1419H324.032L306.392 77.3385ZM341.053 77.3385V59.3693L325.021 42.1419H332.11L343.773 54.6297L355.231 42.1419H362.567L346.452 59.2868V77.3385H341.053ZM369.285 77.3385V31.8384H374.519L392.9 59.699L411.405 31.8384H416.557V77.3385H410.952V41.8122L392.9 68.7248L374.848 41.8122V77.3385H369.285ZM435.021 63.7379H448.786L441.945 50.261L435.021 63.7379ZM422.286 77.3385L440.172 42.1419H443.634L461.686 77.3385H455.792L451.218 68.3951H432.63L428.097 77.3385H422.286ZM472.525 56.814H491.236C493.132 56.814 494.575 56.4019 495.564 55.5776C496.58 54.7533 497.089 53.5719 497.089 52.0332C497.089 50.4946 496.58 49.3268 495.564 48.53C494.575 47.7058 493.132 47.2936 491.236 47.2936H472.525V56.814ZM472.525 61.9657V77.3385H467.003V42.2243H491.236C494.836 42.2243 497.652 43.0898 499.685 44.8208C501.718 46.5518 502.735 48.9559 502.735 52.0332C502.735 54.5335 501.924 56.7041 500.303 58.545C498.71 60.3584 496.622 61.4712 494.039 61.8833L503.807 77.3385H497.831L487.857 61.9657H472.525ZM512.75 77.3385V42.2243H518.273V57.8444L536.901 42.2243H544.155L529.4 54.7121L546.38 77.3385H540.198L525.526 57.9268L518.273 64.0676V77.3385H512.75ZM552.81 77.3385V42.1419H585.822V47.2936H558.332V56.0722H576.384V61.1415H558.332V72.2692H587.347V77.3385H552.81ZM603.544 77.3385V47.0463H588.707V42.1419H623.904V47.0463H609.025V77.3385H603.544ZM637.504 70.9916C638.466 70.9916 639.263 71.3488 639.895 72.0631C640.554 72.7775 640.884 73.6979 640.884 74.8245C640.884 75.896 640.554 76.7752 639.895 77.4621C639.263 78.1765 638.466 78.5337 637.504 78.5337C636.515 78.5337 635.691 78.1765 635.031 77.4621C634.372 76.7752 634.042 75.896 634.042 74.8245C634.042 73.7254 634.372 72.8187 635.031 72.1043C635.718 71.3625 636.543 70.9916 637.504 70.9916ZM658.358 77.3385V31.8384H661.326L690.835 65.8398V31.8384H696.522V77.3385H693.637L664.005 43.3371V77.3385H658.358ZM710.123 77.3385V31.8384H745.897V37.0726H715.769V50.4259H733.986V55.66H715.769V72.1043H747.751V77.3385H710.123ZM764.113 77.3385V37.0726H744.99V31.8384H788.965V37.0726H769.801V77.3385H764.113Z" fill="white"/>
</svg>
