<svg width="394" height="146" viewBox="0 0 394 146" fill="none" xmlns="http://www.w3.org/2000/svg">
<rect width="394" height="146" fill="white"/>
<g clip-path="url(#clip0_154_4956)">
<path d="M181.207 91.396V80.8385C181.207 75.8414 179.418 72.9265 175.62 72.2406C180.055 71.0648 181.256 67.3415 181.256 62.5894C181.256 55.8777 178.83 51.689 171.013 51.689H156.972V95.1683H166.309V76.2578H168.612C170.866 76.2578 171.92 77.8011 171.92 79.8832V91.445C171.92 93.3801 172.312 94.7764 172.582 95.1683H182.016C181.697 94.8009 181.207 93.3066 181.207 91.396ZM168.783 68.9337L166.309 68.9827V59.1601H169.127C171.258 59.1601 171.969 60.7278 171.969 64.1571C171.969 67.5865 171.185 68.9337 168.783 68.9337Z" fill="#171D21"/>
<path d="M76.4512 87.7707C78.1175 86.3745 78.4115 84.6598 78.4115 83.1166V76.6253H69.3449V85.4437C69.3449 86.6929 68.3157 87.7217 67.066 87.7217C65.8163 87.7217 64.8606 86.6929 64.8606 85.4437V60.4584C64.8606 59.2091 65.7918 58.1803 67.066 58.1803C68.3157 58.1803 69.3449 59.2091 69.3449 60.4584V69.3257H78.4115V60.1154C78.387 55.0204 75.0544 50.8317 66.968 50.8317C58.6365 50.8317 55.5 55.0449 55.5 60.1154V86.203C55.5 91.2491 59.4942 95.0704 64.6156 95.0704H67.4336L76.4512 87.7707Z" fill="#171D21"/>
<path d="M325.905 91.3716V80.8141C325.905 75.817 324.116 72.9021 320.318 72.2162C324.753 71.0404 325.954 67.3171 325.954 62.565C325.954 55.8533 323.528 51.6646 315.711 51.6646H301.67V95.1439H311.031V76.2334H313.309C315.564 76.2334 316.618 77.7766 316.618 79.8588V91.4206C316.618 93.3557 317.01 94.7764 317.279 95.1439H326.713C326.419 94.7764 325.905 93.2822 325.905 91.3716ZM313.481 68.9093H311.006V59.1112H313.849C315.98 59.1112 316.691 60.6789 316.691 64.1082C316.691 67.5621 315.907 68.9093 313.481 68.9093Z" fill="#171D21"/>
<path d="M290.913 51.5911H278.342L270.893 95.1439H280.351L281.283 87.4523H288.046L288.977 95.1439H298.436L290.913 51.5911ZM282.238 79.5158L284.664 59.2336L287.09 79.5158H282.238Z" fill="#171D21"/>
<path d="M228.304 95.1438V51.689H237.885V86.8889H247.858V95.1438H228.304Z" fill="#171D21"/>
<path d="M223.232 51.689H213.651V95.1438H223.232V51.689Z" fill="#171D21"/>
<path d="M250.162 95.1438V51.689H259.743V86.8889H269.716V95.1438H250.162Z" fill="#171D21"/>
<path d="M200.394 51.689H185.789V95.1683H195.15V77.9235H200.394C208.995 77.9235 210.441 72.4366 210.441 64.8185C210.441 57.1514 208.995 51.689 200.394 51.689ZM197.968 70.2075L195.126 70.183V59.1601H197.968C200.394 59.1601 200.811 60.8257 200.811 64.794C200.811 68.9092 200.394 70.2075 197.968 70.2075Z" fill="#171D21"/>
<path d="M140.799 59.9685V68.5909H150.724V77.0908H140.799V86.742H152.586V95.1194L131.218 95.1439V51.6646H152.194V59.9685H140.799Z" fill="#171D21"/>
<path d="M112.228 88.7995V60.1399H105.979V51.689H128.645V60.1399H122.348V95.0213H119.652L112.228 88.7995Z" fill="#171D21"/>
<path d="M116.295 95.0703L94.2168 76.5763L71.3298 95.0703H116.295Z" fill="#171D21"/>
<path d="M100.514 51.738H87.8702L80.4944 84.7823L94.2168 73.7104L108.527 85.6887L100.514 51.738ZM91.7664 71.6038L94.2168 59.1112L96.6428 71.6038H91.7664Z" fill="#171D21"/>
<path d="M338.5 54.7265C338.5 56.7596 336.883 58.4008 334.849 58.4008C332.815 58.4008 331.173 56.7596 331.173 54.7265C331.173 52.6934 332.815 51.0767 334.849 51.0767C336.883 51.0767 338.5 52.6934 338.5 54.7265ZM337.814 54.7265C337.814 53.0853 336.466 51.7625 334.849 51.7625C333.183 51.7625 331.859 53.0853 331.859 54.7265C331.859 56.3677 333.183 57.7149 334.849 57.7149C336.491 57.7149 337.814 56.3677 337.814 54.7265ZM334.383 56.8576H333.428V52.5954H335.217C335.878 52.5954 336.295 52.9873 336.295 53.7222C336.295 54.2611 336.074 54.6775 335.437 54.7755V54.8C335.658 54.8 336.27 54.849 336.27 55.6328C336.27 55.9023 336.295 56.7106 336.368 56.8821H335.413C335.29 56.6126 335.29 56.3432 335.29 56.0492C335.29 55.5593 335.364 55.1184 334.628 55.1184H334.383V56.8576ZM334.383 54.4815H334.824C335.217 54.4815 335.339 54.1386 335.339 53.8446C335.339 53.4527 335.143 53.2812 334.824 53.2812H334.383V54.4815Z" fill="#171D21"/>
</g>
<defs>
<clipPath id="clip0_154_4956">
<rect width="283" height="44.3367" fill="white" transform="translate(55.5 50.8317)"/>
</clipPath>
</defs>
</svg>
