<svg width="394" height="146" viewBox="0 0 394 146" fill="none" xmlns="http://www.w3.org/2000/svg">
<rect width="394" height="146" fill="white"/>
<g clip-path="url(#clip0_154_5002)">
<path d="M37.9027 63.2864L49.2021 85.4027H62.3117L73.4466 63.2864H78.9866V59.2803H62.2568V63.2864H67.0838L58.9657 79.366L50.738 63.2864H56.6071V59.2803H32.3627V63.2864H37.9027Z" fill="#171D21"/>
<path d="M129.56 59.2803C118.315 59.2803 112.336 65.317 112.336 72.8903C112.336 80.5734 118.096 86.7198 129.67 86.7198C141.243 86.7198 146.893 80.5734 146.893 72.8903C146.838 65.317 140.804 59.2803 129.56 59.2803ZM129.45 82.549C125.336 82.4941 123.526 77.555 123.636 72.7257C123.691 67.6768 125.94 63.2864 129.779 63.3962C133.619 63.4511 135.648 67.9512 135.594 72.9452C135.484 77.7197 133.674 82.6588 129.45 82.549Z" fill="#171D21"/>
<path d="M180.188 63.2864V59.2803H202.622V63.2864H197.027V81.3417H202.183C203.226 81.4514 204.213 81.2868 205.2 80.9026C206.188 80.5185 207.065 79.9697 207.778 79.2014C208.546 78.4331 209.095 77.555 209.534 76.5123C209.918 75.4696 210.137 74.372 210.137 73.2744H213.812V85.3479H180.133V81.2868H185.783V63.2864H180.188Z" fill="#171D21"/>
<path d="M252.647 63.2864L263.946 85.4027H277.056L288.191 63.2864H293.786V59.2803H277.001V63.2864H281.828L273.71 79.366L265.482 63.2864H271.351V59.2803H247.052V63.2864H252.647Z" fill="#171D21"/>
<path d="M344.304 59.2803C333.06 59.2803 327.081 65.317 327.081 72.8903C327.081 80.5734 332.84 86.7198 344.414 86.7198C355.988 86.7198 361.637 80.5734 361.637 72.8903C361.583 65.317 355.549 59.2803 344.304 59.2803ZM344.195 82.549C340.081 82.4941 338.271 77.555 338.38 72.7257C338.435 67.6768 340.684 63.2864 344.579 63.3962C348.418 63.4511 350.448 67.9512 350.393 72.9452C350.228 77.7197 348.418 82.6588 344.195 82.549Z" fill="#171D21"/>
</g>
<defs>
<clipPath id="clip0_154_5002">
<rect width="329.275" height="27.4396" fill="white" transform="translate(32.3627 59.2803)"/>
</clipPath>
</defs>
</svg>
